<svg width="512" height="512" viewBox="0 0 512 512" fill="none" xmlns="http://www.w3.org/2000/svg">
  <g stroke="#111111" stroke-width="8" stroke-linecap="round" stroke-linejoin="round">
    <path d="M154 381C176 347 215 327 256 327C297 327 336 347 358 381L378 512H134L154 381Z" fill="#4A64B7"/>
    <path d="M132 224L110 120L177 148L132 224Z" fill="#F4A545"/>
    <path d="M380 224L402 121L336 146L380 224Z" fill="#F4A545"/>
    <path d="M255 95C340 95 405 164 405 251C405 345 335 413 256 413C177 413 107 345 107 251C107 164 170 95 255 95Z" fill="#F4A545"/>
    <path d="M136 231C162 171 210 136 255 136C299 136 344 171 375 231C353 182 309 151 255 151C201 151 160 181 136 231Z" fill="#FFFFFF"/>
    <path d="M202 335C215 302 234 286 256 286C278 286 297 302 310 335L298 413H214L202 335Z" fill="#FFF7EA"/>
    <path d="M188 118L238 70L303 86L279 134L188 118Z" fill="#FFFFFF"/>
    <path d="M245 74L271 34L311 79L282 94L245 74Z" fill="#FFFFFF"/>
    <path d="M153 158L124 121L170 130L191 154L153 158Z" fill="#8B592B"/>
    <path d="M359 155L399 119L350 129L327 151L359 155Z" fill="#8B592B"/>
    <path d="M243 108L203 84L221 129L243 108Z" fill="#1B1B1B"/>
    <path d="M272 103L311 83L291 129L272 103Z" fill="#1B1B1B"/>
    <path d="M130 228C137 196 156 166 182 145C154 161 128 194 119 228H130Z" fill="#F4A545"/>
    <path d="M381 228C374 196 355 166 329 145C357 161 383 194 392 228H381Z" fill="#F4A545"/>
    <path d="M185 191L146 214L170 231L210 211L185 191Z" fill="#F4A545"/>
    <path d="M329 191L366 214L341 232L302 211L329 191Z" fill="#F4A545"/>
    <path d="M179 224C198 214 226 213 245 222" />
    <path d="M331 224C313 214 286 213 266 222" />
    <path d="M175 241C203 238 219 249 220 281C193 289 166 280 161 259C159 251 164 243 175 241Z" fill="#FFFFFF"/>
    <path d="M338 241C310 238 294 249 293 281C320 289 347 280 352 259C354 251 349 243 338 241Z" fill="#FFFFFF"/>
    <path d="M197 261C209 260 216 267 216 279C216 291 208 299 196 299C184 299 176 292 176 279C176 267 184 261 197 261Z" fill="#111111"/>
    <path d="M315 261C327 260 334 267 334 279C334 291 326 299 314 299C302 299 294 292 294 279C294 267 302 261 315 261Z" fill="#111111"/>
    <path d="M229 257H281" />
    <path d="M239 231L271 231" />
    <path d="M257 252L272 220" />
    <path d="M240 314C251 300 261 300 272 314" />
    <path d="M240 334C253 345 265 345 278 334" />
    <path d="M245 314L256 324L267 314" fill="#F7B8BD"/>
    <path d="M130 305L176 316" />
    <path d="M127 329L174 329" />
    <path d="M132 353L177 342" />
    <path d="M381 305L335 316" />
    <path d="M384 329L337 329" />
    <path d="M379 353L334 342" />
    <path d="M219 194L176 221" />
    <path d="M293 190L338 217" />
    <path d="M233 183L183 167" />
    <path d="M281 181L333 165" />
    <path d="M174 202L207 211" />
    <path d="M304 211L339 202" />
    <rect x="155" y="241" width="82" height="70" rx="18" fill="none"/>
    <rect x="275" y="241" width="82" height="70" rx="18" fill="none"/>
    <path d="M237 271H275" />
    <path d="M217 339L179 395L206 406L236 352L217 339Z" fill="#FFF7EA"/>
    <path d="M295 352L325 406L350 395L313 339L295 352Z" fill="#FFF7EA"/>
    <path d="M232 405H281" />
    <path d="M150 126L167 150" />
    <path d="M362 124L344 149" />
    <path d="M257 97L285 123" />
  </g>
</svg>
